{"url": "https://api.github.com/repos/tensorflow/tensorflow/issues/comments/372510809", "html_url": "https://github.com/tensorflow/tensorflow/issues/17533#issuecomment-372510809", "issue_url": "https://api.github.com/repos/tensorflow/tensorflow/issues/17533", "id": 372510809, "node_id": "MDEyOklzc3VlQ29tbWVudDM3MjUxMDgwOQ==", "user": {"login": "XuChunling", "id": 10767042, "node_id": "MDQ6VXNlcjEwNzY3MDQy", "avatar_url": "https://avatars3.githubusercontent.com/u/10767042?v=4", "gravatar_id": "", "url": "https://api.github.com/users/XuChunling", "html_url": "https://github.com/XuChunling", "followers_url": "https://api.github.com/users/XuChunling/followers", "following_url": "https://api.github.com/users/XuChunling/following{/other_user}", "gists_url": "https://api.github.com/users/XuChunling/gists{/gist_id}", "starred_url": "https://api.github.com/users/XuChunling/starred{/owner}{/repo}", "subscriptions_url": "https://api.github.com/users/XuChunling/subscriptions", "organizations_url": "https://api.github.com/users/XuChunling/orgs", "repos_url": "https://api.github.com/users/XuChunling/repos", "events_url": "https://api.github.com/users/XuChunling/events{/privacy}", "received_events_url": "https://api.github.com/users/XuChunling/received_events", "type": "User", "site_admin": false}, "created_at": "2018-03-13T00:57:48Z", "updated_at": "2018-03-13T01:03:32Z", "author_association": "NONE", "body_html": "<p><a class=\"user-mention\" data-hovercard-type=\"user\" data-hovercard-url=\"/hovercards?user_id=6932348\" data-octo-click=\"hovercard-link-click\" data-octo-dimensions=\"link_type:self\" href=\"https://github.com/yongtang\">@yongtang</a>  the output</p>\n<p><code>$ ffmpeg -nostats -nostdin -i DongFangLieChe.mp4 -f image2pipe -probesize 5000000 -loglevel info -hide_banner -vcodec rawvideo -pix_fmt rgb24 -y small.raw Input #0, mov,mp4,m4a,3gp,3g2,mj2, from 'DongFangLieChe.mp4': Metadata: major_brand     : isom minor_version   : 512 compatible_brands: isomiso2avc1mp41 encoder         : Lavf57.71.100 description     : Packed by Bilibili XCoder v1.0(fixed_gap:False) Duration: 00:10:24.45, start: 0.000000, bitrate: 480 kb/s Stream #0:0(und): Video: h264 (High) (avc1 / 0x31637661), yuv420p, 640x360 [SAR 1:1 DAR 16:9], 408 kb/s, 20 fps, 20 tbr, 16k tbn, 40 tbc (default) Metadata: handler_name    : VideoHandler Stream #0:1(und): Audio: aac (mp4a / 0x6134706D), 48000 Hz, stereo, fltp, 65 kb/s (default) Metadata: handler_name    : SoundHandler Output #0, image2pipe, to 'small.raw': Metadata: major_brand     : isom minor_version   : 512 compatible_brands: isomiso2avc1mp41 description     : Packed by Bilibili XCoder v1.0(fixed_gap:False) encoder         : Lavf56.4.101 Stream #0:0(und): Video: rawvideo (RGB[24] / 0x18424752), rgb24, 640x360 [SAR 1:1 DAR 16:9], q=2-31, 200 kb/s, 20 fps, 20 tbn, 20 tbc (default) Metadata: handler_name    : VideoHandler encoder         : Lavc56.1.100 rawvideo Stream mapping: Stream #0:0 -&gt; #0:0 (h264 (native) -&gt; rawvideo (native)) frame=12488 fps=216 q=0.0 Lsize= 8429400kB time=00:10:24.40 bitrate=110592.0kbits/s video:8429400kB audio:0kB subtitle:0kB other streams:0kB global headers:0kB muxing overhead: 0.000000%</code></p>\n<p>this is the output file</p>\n<p><code>$ ls </code><br>\n<code>DongFangLieChe.mp4  ff_help  jpg  small.raw  XML</code></p>", "body_text": "@yongtang  the output\n$ ffmpeg -nostats -nostdin -i DongFangLieChe.mp4 -f image2pipe -probesize 5000000 -loglevel info -hide_banner -vcodec rawvideo -pix_fmt rgb24 -y small.raw Input #0, mov,mp4,m4a,3gp,3g2,mj2, from 'DongFangLieChe.mp4': Metadata: major_brand     : isom minor_version   : 512 compatible_brands: isomiso2avc1mp41 encoder         : Lavf57.71.100 description     : Packed by Bilibili XCoder v1.0(fixed_gap:False) Duration: 00:10:24.45, start: 0.000000, bitrate: 480 kb/s Stream #0:0(und): Video: h264 (High) (avc1 / 0x31637661), yuv420p, 640x360 [SAR 1:1 DAR 16:9], 408 kb/s, 20 fps, 20 tbr, 16k tbn, 40 tbc (default) Metadata: handler_name    : VideoHandler Stream #0:1(und): Audio: aac (mp4a / 0x6134706D), 48000 Hz, stereo, fltp, 65 kb/s (default) Metadata: handler_name    : SoundHandler Output #0, image2pipe, to 'small.raw': Metadata: major_brand     : isom minor_version   : 512 compatible_brands: isomiso2avc1mp41 description     : Packed by Bilibili XCoder v1.0(fixed_gap:False) encoder         : Lavf56.4.101 Stream #0:0(und): Video: rawvideo (RGB[24] / 0x18424752), rgb24, 640x360 [SAR 1:1 DAR 16:9], q=2-31, 200 kb/s, 20 fps, 20 tbn, 20 tbc (default) Metadata: handler_name    : VideoHandler encoder         : Lavc56.1.100 rawvideo Stream mapping: Stream #0:0 -> #0:0 (h264 (native) -> rawvideo (native)) frame=12488 fps=216 q=0.0 Lsize= 8429400kB time=00:10:24.40 bitrate=110592.0kbits/s video:8429400kB audio:0kB subtitle:0kB other streams:0kB global headers:0kB muxing overhead: 0.000000%\nthis is the output file\n$ ls \nDongFangLieChe.mp4  ff_help  jpg  small.raw  XML", "body": "@yongtang  the output\r\n\r\n`$ ffmpeg -nostats -nostdin -i DongFangLieChe.mp4 -f image2pipe -probesize 5000000 -loglevel info -hide_banner -vcodec rawvideo -pix_fmt rgb24 -y small.raw\r\nInput #0, mov,mp4,m4a,3gp,3g2,mj2, from 'DongFangLieChe.mp4':\r\n  Metadata:\r\n    major_brand     : isom\r\n    minor_version   : 512\r\n    compatible_brands: isomiso2avc1mp41\r\n    encoder         : Lavf57.71.100\r\n    description     : Packed by Bilibili XCoder v1.0(fixed_gap:False)\r\n  Duration: 00:10:24.45, start: 0.000000, bitrate: 480 kb/s\r\n    Stream #0:0(und): Video: h264 (High) (avc1 / 0x31637661), yuv420p, 640x360 [SAR 1:1 DAR 16:9], 408 kb/s, 20 fps, 20 tbr, 16k tbn, 40 tbc (default)\r\n    Metadata:\r\n      handler_name    : VideoHandler\r\n    Stream #0:1(und): Audio: aac (mp4a / 0x6134706D), 48000 Hz, stereo, fltp, 65 kb/s (default)\r\n    Metadata:\r\n      handler_name    : SoundHandler\r\nOutput #0, image2pipe, to 'small.raw':\r\n  Metadata:\r\n    major_brand     : isom\r\n    minor_version   : 512\r\n    compatible_brands: isomiso2avc1mp41\r\n    description     : Packed by Bilibili XCoder v1.0(fixed_gap:False)\r\n    encoder         : Lavf56.4.101\r\n    Stream #0:0(und): Video: rawvideo (RGB[24] / 0x18424752), rgb24, 640x360 [SAR 1:1 DAR 16:9], q=2-31, 200 kb/s, 20 fps, 20 tbn, 20 tbc (default)\r\n    Metadata:\r\n      handler_name    : VideoHandler\r\n      encoder         : Lavc56.1.100 rawvideo\r\nStream mapping:\r\n  Stream #0:0 -> #0:0 (h264 (native) -> rawvideo (native))\r\nframe=12488 fps=216 q=0.0 Lsize= 8429400kB time=00:10:24.40 bitrate=110592.0kbits/s\r\nvideo:8429400kB audio:0kB subtitle:0kB other streams:0kB global headers:0kB muxing overhead: 0.000000%`\r\n\r\nthis is the output file\r\n\r\n`$ ls\r\n`\r\n`DongFangLieChe.mp4  ff_help  jpg  small.raw  XML`"}